<svg xmlns="http://www.w3.org/2000/svg" xmlns:xlink="http://www.w3.org/1999/xlink" width="287" height="208.403" viewBox="0 0 287 208.403"><defs><clipPath id="clip-path"><rect width="287" height="208.403" fill="none"/></clipPath></defs><g id="Background" clip-path="url(#clip-path)"><g id="Background-2" data-name="Background" transform="translate(205.785 -369.753)"><g id="Group_16" data-name="Group 16" transform="translate(-37.713 374.795)"><path id="Path_155" fill="#ff4d35" d="M134.381,376.216c-30.575-2.225-26.194,27.243-26.194,49.325,0,7.463-.2,16.043-.482,24.123.4,1.56.809,3.2,1.184,4.892.222,1,.443,2,.645,3.005.126.625.241,1.252.356,1.877.02.145.048.28.077.424.145.789.28,1.589.4,2.388.145.943.269,1.9.385,2.841.077.655.145,1.3.192,1.945q.087.939.145,1.878c.048.742.077,1.474.1,2.186h-.01v.01c.01.029,0,.057.01.087a12.878,12.878,0,0,1,.029,1.329,48.512,48.512,0,0,1-.4,6.924h6.105a6.167,6.167,0,0,1,6.144,6.144S164.956,378.441,134.381,376.216Z" data-name="Path 155" transform="translate(-26.622 -376.097)"/><path id="Path_156" fill="#eda81f" d="M88.651,537.793c-2.725,1.676-5.181,3.2-7.4,4.555h30.6v-6.635H91.714Q90.254,536.811,88.651,537.793Z" data-name="Path 156" transform="translate(-21.193 -408.854)"/><path id="Path_157" fill="#fbc312" d="M99.515,599.889v7.8h3.024l.886-7.8,5.768-50.509.616-5.306H99.515Z" data-name="Path 157" transform="translate(-24.941 -410.569)"/><path id="Path_158" fill="#eda81f" d="M28.575,535.713H12.954v6.635h13.56c.616-1.069,1.3-2.185,2.061-3.341Z" data-name="Path 158" transform="translate(-7.177 -408.854)"/><g id="Group_15" data-name="Group 15" transform="translate(0 103.353)"><path id="Path_159" fill="#d13f2b" d="M114.184,506.137h-6.105A35.488,35.488,0,0,1,104.15,518.6a32.268,32.268,0,0,1-1.946,3.111c-.134.183-.25.375-.385.549-.231.328-.491.635-.742.953-.212.279-.424.559-.655.828s-.482.53-.713.8c-.269.3-.539.6-.819.885s-.549.54-.828.809-.539.54-.828.8c-.385.347-.8.693-1.214,1.03-.192.164-.366.328-.567.482-.338.27-.694.54-1.04.8h19.77a6.167,6.167,0,0,0,6.144-6.144V512.281A6.167,6.167,0,0,0,114.184,506.137Z" data-name="Path 159" transform="translate(-23.894 -506.137)"/><path id="Path_160" fill="#d13f2b" d="M57.519,509.969v-.01c.019-.029,1.416-1.974,2.908-3.823H57.192v4.15C57.3,510.181,57.4,510.075,57.519,509.969Z" data-name="Path 160" transform="translate(-16.255 -506.137)"/><path id="Path_161" fill="#d13f2b" d="M27.083,506.137H11.829a6.16,6.16,0,0,0-6.144,6.144V523.5a6.16,6.16,0,0,0,6.144,6.144H27.083Z" data-name="Path 161" transform="translate(-5.685 -506.137)"/></g></g><g id="Group_18" data-name="Group 18" transform="translate(-46.737 369.753)"><path id="Path_162" fill="#fad664" d="M79.723,527.49c.347-.26.7-.529,1.04-.8.2-.153.375-.318.567-.482.414-.337.829-.683,1.214-1.03.289-.26.549-.529.828-.8s.559-.529.828-.809.549-.587.819-.885c.231-.269.482-.53.713-.8s.443-.549.655-.828c.25-.318.51-.626.742-.953.134-.174.25-.366.385-.549a32.257,32.257,0,0,0,1.946-3.111,35.489,35.489,0,0,0,3.929-12.461,48.511,48.511,0,0,0,.4-6.924,12.878,12.878,0,0,0-.029-1.329c-.01-.029,0-.058-.01-.087-.075.052-.161.1-.238.152l-.3.2c-.153.1-.318.192-.471.289-.453.279-.916.529-1.4.77a20.864,20.864,0,0,1-2.109.943v.009c-.674.28-1.367.53-2.08.761-.5.154-1,.308-1.512.453s-1.031.279-1.551.4-1.065.232-1.6.343l-.111.023c-1.021.207-2.051.4-3.092.549-.277.041-.555.065-.833.1-.307.041-.611.087-.92.119-.184.026-.37.04-.555.062-.855.1-1.7.176-2.543.242-.323.026-.649.056-.969.079-.165.011-.335.03-.5.041-.1.01-.183.01-.269.019-2.109.126-4.141.173-5.98.173-.183,0-.366,0-.549-.01-.742,0-1.464-.01-2.147-.029-.347,0-.674-.009-1-.029-4.026-.125-6.751-.414-6.779-.424v-.01h-.01a19.389,19.389,0,0,0-2.86,3.1c-1.493,1.849-2.889,3.794-2.908,3.823v.01c-.115.106-.222.211-.327.318A141.518,141.518,0,0,0,32.854,527.49q-1.214,1.7-2.253,3.294c-.761,1.156-1.445,2.272-2.061,3.341a57.742,57.742,0,0,0-2.938,5.788,36.805,36.805,0,0,0-2.167,6.472,22.347,22.347,0,0,0-.607,4.95,9.743,9.743,0,0,0,.434,3.293.489.489,0,0,0,.048.126,31.443,31.443,0,0,0,3.188,6.828,58.252,58.252,0,0,0,4.1,5.884c1.117,1.435,2.3,2.841,3.5,4.2v.01A141.906,141.906,0,0,0,50.14,586.859c.212.174.327.261.327.261l7.271-4.622a53.387,53.387,0,0,0-5.663-20.916c-.645-1.253-1.29-2.408-1.935-3.457a39.676,39.676,0,0,0-6.009-7.771l6.009-4.421.327-.241.01.01.847-.529c1.291-.8,3.361-2.089,6.741-4.16.559-.337,1.165-.713,1.791-1.1.943-.578,1.945-1.194,3.053-1.877l4.5-2.755c.6-.375,1.223-.751,1.858-1.156,2.215-1.357,4.671-2.879,7.4-4.555Q78.265,528.588,79.723,527.49Z" data-name="Path 162" transform="translate(-0.179 -395.588)"/><path id="Path_163" fill="#fdd9c7" d="M66.649,410.977l5.509-.742,5.5-.761-1.483-10.323v-.01l-2.705.327c-.193.029-.376.048-.568.058a7.478,7.478,0,0,1-1.253-.023c-.041,0-.083,0-.124-.006l-.25-.029a4.143,4.143,0,0,1-.491-.058v-.01c-.01.01-.029,0-.038,0a8.349,8.349,0,0,1-1.464-.395c-.241-.1-.472-.192-.7-.308h-.01c-.01,0-.019-.01-.029-.019-.222-.107-.443-.222-.655-.337-.01-.01-.019-.02-.029-.02-.212-.125-.424-.26-.626-.394a.033.033,0,0,1-.019-.01c-.087-.067-.173-.125-.26-.2a4.1,4.1,0,0,1-.347-.26l-.01-.01-.019-.01-.125-.126a.307.307,0,0,0-.058-.048l-.087-.087c-.087-.087-.173-.164-.26-.25l-.048-.048c-.058-.048-.1-.077-.135-.116a.652.652,0,0,1-.1-.125,3.1,3.1,0,0,1-.443-.52,6.34,6.34,0,0,1-.463-.655,3.406,3.406,0,0,1-.183-.3c-.1-.164-.183-.327-.269-.5l-.01-.01c-.077-.173-.154-.346-.222-.52a7.645,7.645,0,0,1-.337-.963c-.019-.068-.038-.145-.058-.222s-.038-.183-.057-.269-.029-.154-.048-.231c-.01-.038-.01-.077-.019-.115-.01-.058-.01-.106-.019-.164v-.02l-.058-.308-.087-.549h.01v-.01l1.5-.212.165-.027.008,0a.563.563,0,0,0,.135-.038.185.185,0,0,0,.068-.019.81.81,0,0,0,.279-.107c.01,0,.019-.01.029-.019a.074.074,0,0,0,.039-.019.07.07,0,0,0,.048-.02c.01,0,.02-.01.029-.019l.019-.019a.228.228,0,0,0,.068-.039.38.38,0,0,0,.135-.115h.01a.167.167,0,0,0,.048-.038.261.261,0,0,0,.058-.048.182.182,0,0,0,.068-.058c.01-.01,0-.01,0-.01a2.179,2.179,0,0,0,.289-.375.157.157,0,0,0,.039-.068c.01-.01.019-.01.01-.019.019-.039.038-.077.057-.126a1.845,1.845,0,0,0,.126-.327l.029-.1a2,2,0,0,0,.048-.424v-.154a.507.507,0,0,0-.01-.125l-.077-.587a1.448,1.448,0,0,0-.029-.193.3.3,0,0,0-.019-.077.035.035,0,0,0-.01-.029.181.181,0,0,0-.019-.068,6.75,6.75,0,0,0-.231-.674c-.027-.063-.045-.107-.063-.152-.006-.012-.013-.023-.018-.034a1.017,1.017,0,0,0-.083-.132c-.029-.048-.058-.106-.087-.145a.271.271,0,0,1-.058-.1c-.019-.01-.019-.029-.029-.038s0-.02-.01-.02a.03.03,0,0,0-.019-.01.615.615,0,0,0-.077-.134v-.01c-.039-.039-.068-.077-.107-.116l-.029-.029c0-.02-.01-.029-.029-.039l-.077-.068c-.019-.019-.029-.038-.048-.057a.306.306,0,0,0-.057-.058h-.01v-.009l-.057-.058a.174.174,0,0,0-.068-.048,2.016,2.016,0,0,0-.4-.337c-.048-.039-.1-.068-.145-.106a1.058,1.058,0,0,0-.134-.077v-.009h-.02a2.208,2.208,0,0,0-.337-.173.03.03,0,0,0-.019-.009c-.125-.049-.25-.1-.385-.145a.162.162,0,0,0-.048-.019.139.139,0,0,1-.058-.019c-.019-.01-.029-.019-.048-.019a.126.126,0,0,0-.058-.01h-.019c-.01-.01-.01-.02-.019-.01H63.76a.381.381,0,0,0-.125-.029l-.058-.019a.125.125,0,0,0-.058-.009,3.156,3.156,0,0,0-.693-.077h-.01a2.169,2.169,0,0,0-.347.019.09.09,0,0,0-.048-.01h-.039a.272.272,0,0,0-.087.01.4.4,0,0,0-.106.01l-.9.125v.01l-.9.125h-.087l-.029.01-.058.01c-.308.029-.606.049-.9.049h-.269c-.106,0-.211,0-.318-.01-.164,0-.318-.019-.471-.029a2.132,2.132,0,0,1-.231-.039,1.939,1.939,0,0,1-.231-.038.89.89,0,0,1-.222-.048c-.019,0-.048-.01-.067-.01l-.164-.029a7.37,7.37,0,0,1-.886-.28l-.289-.115a5.141,5.141,0,0,1-.567-.269l-.463-.27-7.858-4.9L49.6,395.242c.019.145.048.289.077.433.057.289.115.578.192.847a3.731,3.731,0,0,0,.116.415,10.611,10.611,0,0,0,.684,1.579c.134.25.279.49.433.732s.318.462.491.683c.077.106.164.2.25.308s.2.222.308.338a2.2,2.2,0,0,0,.289.308c.106.106.2.193.318.289.222.211.424.375.645.558a7.95,7.95,0,0,0,1.069.732c.125.077.241.135.366.2.241.135.51.27.771.385s.529.222.808.318a.032.032,0,0,1,.02.01c.183.058.366.116.558.164a7.583,7.583,0,0,0,.954.222,9.371,9.371,0,0,0,1.05.145h.019c.1,0,.192.01.289.01h.135a8.839,8.839,0,0,0,1.233,0c.2-.019.414-.048.625-.077l3.043-.424v.01h.01l-.655,1.107-.144.241-.5.858-1.3,2.2-.01.01-1.3,2.206-.472.8h-.01l-.01.019.145,1h.01Z" data-name="Path 163" transform="translate(-5.2 -371.678)"/><path id="Path_164" fill="#d2ebe8" d="M69.864,453.664l.01-.01,2.87-6.7,4.285-10.015a7.359,7.359,0,0,0,.317-.877q.128-.409.217-.819c0-.021.007-.041.012-.062a7.85,7.85,0,0,0,.128-.794,9.216,9.216,0,0,0-.173-3.043c-.058-.211-.107-.433-.174-.635-.057-.184-.115-.366-.183-.54a.471.471,0,0,0-.038-.106c-.01,0,0-.01,0-.01-.029-.058-.048-.126-.077-.183-.068-.145-.135-.289-.193-.434a.072.072,0,0,1-.019-.038c-.1-.193-.192-.376-.3-.568a11.24,11.24,0,0,0-.761-1.137c-.145-.183-.3-.356-.453-.529a10.548,10.548,0,0,0-1-.954,10.2,10.2,0,0,0-1.165-.819,6.752,6.752,0,0,0-.636-.346c-.222-.106-.443-.2-.674-.3a10.452,10.452,0,0,0-1.82-.539,9.232,9.232,0,0,0-1.849-.183,6.751,6.751,0,0,0-.876.048,5.282,5.282,0,0,0-.559.058,10.882,10.882,0,0,0-1.329.289c-.145.038-.289.087-.433.134a1.877,1.877,0,0,1-.222.077,9.922,9.922,0,0,0-1.261.578c-.154.077-.308.173-.463.269a9.346,9.346,0,0,0-1.752,1.377l-.038.038a.406.406,0,0,0-.106.116c-.153.154-.308.328-.452.5-.115.145-.231.289-.337.443a2.75,2.75,0,0,0-.2.289c-.067.087-.115.173-.173.26a5.945,5.945,0,0,0-.308.54c-.02.029-.039.067-.058.1-.106.211-.2.424-.3.635L54.841,440.24h-.01l-2.658,6.26-.01.01,12.914,5.219Z" data-name="Path 164" transform="translate(-6.199 -380.89)"/><path id="Path_165" fill="#fdd9c7" d="M47.355,469.642c.376-.318.751-.645,1.117-.982.49-.433.958-.88,1.431-1.323.6-.57,1.2-1.141,1.776-1.71.684-.684,1.349-1.358,1.974-2.012.019-.02.029-.039.048-.049.3-.308.587-.616.866-.915,0,0-.01,0,0-.009.443-.463.858-.915,1.252-1.348a.119.119,0,0,1,.048-.048c.366-.414.722-.8,1.04-1.165.115-.126.221-.241.317-.356.02-.02.029-.039.048-.048.183-.222.366-.424.529-.616.1-.106.184-.2.251-.289.01-.01.019-.029.038-.038a3.957,3.957,0,0,0,.289-.338c.048-.057.1-.106.135-.153a3.214,3.214,0,0,0,.279-.338c.02-.01.02-.019.029-.029.077-.087.135-.164.173-.211a.4.4,0,0,0,.068-.077.033.033,0,0,1,.01-.019l-4.786-1.936L41.375,450.41a.01.01,0,0,1-.01.01c-.038.038-.163.192-.356.433a.876.876,0,0,1-.1.116c-.1.134-.222.289-.356.452-.145.183-.308.385-.482.606-.963,1.2-2.292,2.928-3.486,4.652a.119.119,0,0,1-.029.038c-.317.463-.635.915-.924,1.358-.2.308-.4.606-.568.9s-.356.578-.5.847c-.164.279-.3.539-.414.78a6.321,6.321,0,0,0-.4.982h-.01c-.038-.029-.241-.154-.587-.346a1.386,1.386,0,0,1-.192-.116c-.25-.153-.568-.337-.934-.539q-.261-.144-.549-.318c-.241-.125-.491-.269-.77-.424a.5.5,0,0,1-.068-.038c-.173-.1-.347-.193-.54-.3-.548-.3-1.137-.617-1.772-.954-.116-.057-.241-.125-.366-.192a75.526,75.526,0,0,0-9.919-4.4c-.211-.077-.414-.145-.625-.212a24.231,24.231,0,0,0-4.8-1.117s.106-4.594,0-5.633a.408.408,0,0,0-.076-.2.318.318,0,0,0-.165-.1.708.708,0,0,0-.347,0,.287.287,0,0,0-.087.019,7.028,7.028,0,0,0-1.887.954.071.071,0,0,0-.048.029,1.39,1.39,0,0,0-.068-.327,3.449,3.449,0,0,0-.6-1.069,6.514,6.514,0,0,0-.664-.732c-.01-.01-.019-.019-.029-.019a5.649,5.649,0,0,0-.607-.54c-.068-.057-.144-.115-.221-.173s-.188-.115-.279-.179c-.255-.178-.522-.35-.8-.514h-.01a4.175,4.175,0,0,0-.579-.308h-.01A.491.491,0,0,0,6,443.756v-.01c-.154-.068-.308-.134-.453-.183a5.434,5.434,0,0,0-.625-.222,4.32,4.32,0,0,0-.472-.125,5.472,5.472,0,0,0-.78-.145,4.681,4.681,0,0,0-.625-.038,4.538,4.538,0,0,0-.9.087c-.1.019-.192.038-.289.067a3.7,3.7,0,0,0-1.608.905,2,2,0,0,0-.568.954,2.466,2.466,0,0,0-.079.453l0,.041c-.006.082-.015.161-.015.248a1.89,1.89,0,0,0,.019.231,6.219,6.219,0,0,0,.674,2.138c.048.106.1.2.145.308a11.724,11.724,0,0,0,.617,1.05c.076.115.153.231.231.356a21.987,21.987,0,0,0,1.454,1.965c.529.655,1.1,1.31,1.675,1.926a3.582,3.582,0,0,1,.269.28c.867.915,1.763,1.762,2.581,2.5a2.752,2.752,0,0,0,.25.231c.087.068.173.145.26.222s.2.173.327.279c.356.308.809.684,1.338,1.107.1.077.231.193.4.318.058.048.126.1.183.145.135.115.269.222.414.337.626.5,1.329,1.05,2.08,1.628.231.183.482.375.742.578.135.106.27.211.414.318.26.192.54.4.819.616l.029.029,1.309.973q.463.333.954.694c.655.491,1.329.972,2.012,1.444.338.25.694.491,1.05.742,1.791,1.252,3.659,2.485,5.509,3.621.375.231.751.452,1.126.674.935.559,1.859,1.079,2.764,1.551.134.077.279.154.424.221.761.4,1.5.761,2.215,1.078.173.077.347.154.51.222.674.289,1.329.54,1.945.742.251.087.5.164.742.231a2.665,2.665,0,0,0,.261.068l.347.087a.426.426,0,0,0,.1.019,4.649,4.649,0,0,0,.51.106,7.822,7.822,0,0,0,1.368.135,2.66,2.66,0,0,0,.394-.019,1.179,1.179,0,0,0,.184-.01c.061-.008.13-.03.192-.04a6.361,6.361,0,0,0,.8-.163c.3-.087.616-.192.943-.318.126-.048.25-.106.385-.164.173-.077.347-.153.529-.25.173-.077.337-.164.51-.25.491-.269,1-.568,1.512-.9l.578-.375c.529-.366,1.059-.742,1.589-1.156.221-.173.452-.347.674-.52.463-.366.934-.751,1.4-1.146v-.01Z" data-name="Path 165" transform="translate(4.59 -384.792)"/><path id="Path_166" fill="#fdfdfd" d="M69.712,485.24c.327.02.655.029,1,.029.684.019,1.406.029,2.147.029.183.01.366.01.549.01,1.839,0,3.871-.048,5.98-.173.087-.01.173-.01.269-.019.164-.01.334-.029.5-.04.32-.022.646-.052.969-.079.844-.067,1.688-.145,2.543-.242.184-.022.37-.036.555-.062.308-.033.613-.078.92-.119.239-.033.481-.06.717-.093-.236.033-.478.06-.717.093.278-.037.556-.062.833-.1,1.041-.154,2.071-.343,3.092-.549l.111-.023c.537-.11,1.077-.216,1.6-.343s1.04-.26,1.551-.4,1.011-.3,1.512-.453c.713-.23,1.406-.481,2.08-.761v-.01a20.879,20.879,0,0,0,2.109-.943c.481-.241.943-.491,1.4-.77.153-.1.318-.193.471-.289l.3-.2c.077-.052.164-.1.238-.152v-.01h.01c-.019-.712-.048-1.444-.1-2.186q-.058-.94-.145-1.878c-.048-.645-.115-1.29-.192-1.945-.116-.944-.241-1.9-.385-2.841-.115-.8-.25-1.6-.4-2.388-.029-.145-.057-.28-.077-.424-.115-.626-.23-1.252-.356-1.877-.2-1-.424-2-.645-3.005-.375-1.694-.78-3.332-1.184-4.892-.491-1.916-1-3.717-1.474-5.374a.371.371,0,0,1-.038-.106c-.02-.058-.048-.145-.077-.26-.01-.039-.029-.1-.039-.145h-.01a.108.108,0,0,0-.01-.048v-.038c-.019-.058-.029-.106-.048-.164l-.029-.125c-.145-.51-.3-1.011-.452-1.512-.164-.559-.327-1.107-.482-1.647-.308-1.039-.617-2.07-.924-3.081-.164-.549-.328-1.088-.491-1.628s-.318-1.069-.472-1.589c-.068-.212-.126-.414-.183-.616-.068-.261-.145-.521-.222-.771-.308-1.04-.616-2.08-.943-3.081l-.029-.087c-.218-.672-.431-1.315-.643-1.942-.1-.31-.2-.633-.31-.938-.116-.328-.222-.645-.347-.963-.067-.2-.144-.394-.211-.587-.087-.241-.173-.472-.26-.7-.135-.357-.27-.713-.4-1.05-.116-.337-.25-.664-.385-.992-.154-.386-.318-.77-.472-1.137s-.327-.742-.481-1.1c-.443-1.031-.886-1.955-1.319-2.8a.478.478,0,0,1-.039-.068c-.154-.289-.3-.568-.443-.838-.549-1.031-1.079-1.916-1.589-2.686-.126-.193-.25-.376-.376-.559-2.042-2.957-3.563-3.833-4.16-4.084a1.063,1.063,0,0,0-.231-.077.152.152,0,0,0-.058-.019v.01l-5.5.751-5.509.742-6.539.886h-.01a.033.033,0,0,0-.01.019.009.009,0,0,1-.01.01c-.029.039-.068.087-.126.174.01.01,0,.019-.019.029-.058.087-.135.2-.222.347-.058.087-.125.183-.192.289-.106.173-.231.366-.366.587-.433.722-.982,1.694-1.56,2.88-.1.192-.192.394-.289.6-.289.606-.587,1.271-.866,1.974-.27.655-.54,1.348-.78,2.08a36.289,36.289,0,0,0-1.2,4.324c-.029.135-.058.279-.087.414a32.876,32.876,0,0,0-.625,5.393v.01l.087.039h.01l4.478-10.468c.1-.212.193-.424.3-.635.019-.029.038-.068.058-.1a5.935,5.935,0,0,1,.308-.54c.058-.087.106-.173.173-.26a2.75,2.75,0,0,1,.2-.289c.106-.154.222-.3.337-.443.145-.173.3-.346.452-.5a.407.407,0,0,1,.106-.116l.038-.038a9.341,9.341,0,0,1,1.752-1.377c.154-.1.308-.192.463-.269a9.939,9.939,0,0,1,1.261-.578,1.888,1.888,0,0,0,.222-.077c.145-.048.288-.1.433-.134a10.881,10.881,0,0,1,1.329-.289,5.282,5.282,0,0,1,.559-.058,6.74,6.74,0,0,1,.876-.048,9.232,9.232,0,0,1,1.849.183,10.456,10.456,0,0,1,1.82.539c.231.1.452.193.674.3a6.754,6.754,0,0,1,.636.347,4.9,4.9,0,0,1,.6.385,4.722,4.722,0,0,1,.568.433,10.546,10.546,0,0,1,1,.954c.154.173.308.346.453.529a4.344,4.344,0,0,1,.4.559,4.344,4.344,0,0,0-.4-.559,11.234,11.234,0,0,1,.761,1.137c.106.192.2.375.3.568a.072.072,0,0,0,.019.038c.058.145.126.289.193.434.029.057.048.125.077.183,0,0-.01.01,0,.01a.47.47,0,0,1,.038.106c.068.173.126.356.183.54.068.2.116.424.174.635a9.216,9.216,0,0,1,.173,3.043,7.857,7.857,0,0,1-.128.794c0,.021-.007.041-.012.062q-.089.41-.217.819a7.36,7.36,0,0,1-.317.877L73.41,445.574l-2.87,6.7-.01.01a.033.033,0,0,0-.01.019.391.391,0,0,1-.068.077c-.038.048-.1.125-.173.211-.01.01-.01.019-.029.029a3.206,3.206,0,0,1-.279.338c-.038.048-.087.1-.135.153a3.939,3.939,0,0,1-.289.338c-.019.01-.029.029-.038.038-.068.087-.154.183-.251.289-.163.192-.347.394-.529.616-.019.01-.029.029-.048.048-.1.115-.2.231-.317.356-.318.366-.674.751-1.04,1.165a.118.118,0,0,0-.048.048c-.394.433-.808.885-1.252,1.348-.01.01,0,.01,0,.01-.279.3-.567.606-.866.915-.019.01-.029.029-.048.048-.625.654-1.29,1.329-1.974,2.012-.578.57-1.175,1.141-1.776,1.71-.473.443-.941.89-1.431,1.323-.366.337-.742.664-1.117.982H58.8v.01l1.628,8.022,2.5,12.413v.01C62.961,484.826,65.686,485.115,69.712,485.24Zm-2.263-.1c-.26-.019-.521-.038-.771-.048C66.928,485.106,67.189,485.125,67.449,485.144Zm-.8-.048c-.241-.019-.482-.029-.7-.048C66.168,485.067,66.408,485.076,66.649,485.1Zm-1.079-.067c-.212-.02-.4-.029-.6-.048C65.166,485,65.358,485.009,65.571,485.029Z" data-name="Path 166" transform="translate(-6.866 -379.513)"/><path id="Path_167" fill="#803413" d="M65.563,609.163a.515.515,0,0,1-.144.338.129.129,0,0,0-.02.029,5.222,5.222,0,0,1-.394.385c-.048.048-.106.1-.164.144s-.106.087-.164.126c-.222.173-.482.366-.78.587-.144.106-.3.212-.462.328-.241.164-.5.337-.771.529-.173.107-.347.231-.529.357-.106.067-.212.144-.318.221-.684.463-1.416.973-2.176,1.522-.327.231-.655.471-.982.712-.51.385-1.021.79-1.532,1.194-.173.145-.347.279-.52.424-.087.068-.164.135-.25.2-.115.1-.222.183-.327.28-.636.539-1.242,1.1-1.8,1.666-.2.212-.4.424-.587.625-.2.231-.4.453-.578.675s-.366.452-.529.684-.327.462-.472.693-.279.463-.4.694a1.177,1.177,0,0,0-.106.288.957.957,0,0,0-.019.164.867.867,0,0,0,.038.472.947.947,0,0,0,.126.308c.048.067.1.134.154.2a.989.989,0,0,0,.183.173c.068.049.145.1.222.145a1.012,1.012,0,0,0,.24.087l.01.01a1.477,1.477,0,0,0,.414.058,1.563,1.563,0,0,0,.549-.126l2.552-1.2.337-.164,9.283-4.382,3.333-1.57v-.01h.01l-1.579-3.177-1.83-3.678-.01-.01v.02Zm0,.1a.156.156,0,0,1-.029.077A.156.156,0,0,0,65.563,609.26ZM64.5,610.329a4.86,4.86,0,0,1-.4.288A4.86,4.86,0,0,0,64.5,610.329ZM61.22,612.62c-.2.145-.4.289-.617.434C60.815,612.91,61.017,612.765,61.22,612.62Z" data-name="Path 167" transform="translate(-6.068 -418.884)"/><path id="Path_168" fill="#fdb693" d="M57.6,609.622l2.3,3.948c.327-.241.655-.481.982-.712.761-.549,1.493-1.059,2.176-1.522.106-.077.212-.154.318-.221.183-.125.356-.25.529-.357.269-.192.53-.366.771-.529.164-.116.318-.222.462-.327.3-.222.559-.414.78-.587.057-.039.106-.087.164-.126s.115-.1.164-.144a5.208,5.208,0,0,0,.394-.385.13.13,0,0,1,.02-.029.515.515,0,0,0,.144-.338v-.01l-.029-.057v-.01c.01.01.019.029.029.038a.086.086,0,0,0-.029-.058l-1.907-3.274L57.6,609.545Z" data-name="Path 168" transform="translate(-7.316 -418.014)"/><path id="Path_169" fill="#fdb693" d="M63.468,416.314l1.3-2.206.01-.01,1.3-2.2.5-.858.144-.241.645-1.107v-.01l-3.043.424c-.211.029-.424.058-.625.077a8.848,8.848,0,0,1-1.233,0h-.135c-.1,0-.192-.01-.289-.01h-.019l-.01.134.231,1.647.732,5.153H63Z" data-name="Path 169" transform="translate(-8.221 -377.949)"/><path id="Path_170" fill="#eda81f" d="M54.939,382.378a5.187,5.187,0,0,0,.567.269l.289.115a7.4,7.4,0,0,0,.886.28l.164.029c.019,0,.048.009.067.009a.89.89,0,0,0,.222.048,1.952,1.952,0,0,0,.231.038,2.132,2.132,0,0,0,.231.039c.153.01.308.029.471.029.106.01.212.01.318.01h.269c.3-.01.6-.019.9-.058h.058l.029-.01h.087l.9-.125v-.009l.9-.126a.4.4,0,0,1,.106-.01.272.272,0,0,1,.087-.01h.039a.09.09,0,0,1,.048.01,2.168,2.168,0,0,1,.347-.019h.01a3.16,3.16,0,0,1,.693.077.124.124,0,0,1,.058.01l.058.019a.381.381,0,0,1,.125.029h.048v.01h.019v-.01c.019.01.038.01.058.02a.181.181,0,0,1,.106.038.162.162,0,0,1,.048.019c.135.048.261.1.385.145a.03.03,0,0,1,.019.01,2.2,2.2,0,0,1,.337.173h.02v.01a1.05,1.05,0,0,1,.134.077c.048.039.1.068.145.107a2.015,2.015,0,0,1,.4.337.174.174,0,0,1,.068.048l.057.058v.01h.01a.306.306,0,0,1,.057.058.127.127,0,0,1,.068.057.14.14,0,0,1,.058.068c.019.01.029.019.029.039l.029.029c.039.039.068.077.107.116v.01a.615.615,0,0,1,.077.134.029.029,0,0,1,.019.01c.01,0,.01,0,.01.02s.01.029.029.038a.271.271,0,0,0,.058.1c.029.039.058.1.087.145a1.012,1.012,0,0,1,.083.132c.006.011.013.022.018.034.018.044.036.089.063.152a6.75,6.75,0,0,1,.231.674.18.18,0,0,1,.019.068.035.035,0,0,1,.01.029.3.3,0,0,1,.019.077,1.451,1.451,0,0,1,.029.193l.077.587a.508.508,0,0,1,.01.125v.154a2,2,0,0,1-.048.424l-.029.1a1.845,1.845,0,0,1-.126.328c-.019.048-.038.087-.057.126.01.01,0,.01-.01.019a.158.158,0,0,1-.039.068.073.073,0,0,1-.019.048.487.487,0,0,1-.106.154c-.02.029-.048.058-.068.087a.915.915,0,0,1-.1.1.182.182,0,0,1-.068.058.26.26,0,0,1-.058.049.166.166,0,0,1-.048.038h-.01a.379.379,0,0,1-.135.115.228.228,0,0,1-.068.039l-.019.019c-.01.01-.019.019-.029.019a.07.07,0,0,1-.048.02.074.074,0,0,1-.039.019c-.01.01-.019.019-.029.019a.811.811,0,0,1-.279.107.186.186,0,0,1-.068.019.563.563,0,0,1-.135.038l-.008,0a1.16,1.16,0,0,1-.165.037l-1.5.211h-.01l.087.549.058.308v.02c.01.058.01.106.019.164.01.038.01.077.019.115.019.077.029.154.048.231s.038.183.057.269.039.154.058.222a7.645,7.645,0,0,0,.337.963c.068.173.145.346.222.52l.01.009c.087.173.173.337.269.5a3.414,3.414,0,0,0,.183.3,6.328,6.328,0,0,0,.463.655,3.1,3.1,0,0,0,.443.52.652.652,0,0,0,.1.125c.039.039.077.068.135.116l.048.048c.087.087.173.164.26.25l.087.087a.31.31,0,0,1,.058.048l.125.126.019.01.01.01a4.1,4.1,0,0,0,.347.26c.087.068.173.135.26.192v.01a.033.033,0,0,0,.019.01c.2.134.414.269.626.394.01,0,.019.01.029.02.211.115.433.23.655.337h.01s.01.019.019.019h.01a7.128,7.128,0,0,0,.675.279,2.168,2.168,0,0,0,.424.135,7.234,7.234,0,0,0,1.107.289c.135.019.269.039.4.049a.144.144,0,0,0,.087.019l.25.029c.041,0,.083,0,.124.006a9.274,9.274,0,0,0,1.253.014c.192-.01.375-.02.568-.049l2.705-.337-.443-3.139-1.069-7.415-.029-.2-.414-2.937L72.4,375.588v-.01l-.087-.539c-.02-.087-.048-.173-.077-.26s-.048-.184-.068-.26c-.038-.126-.087-.261-.135-.385l-.067-.154a3.336,3.336,0,0,0-.222-.5,4.069,4.069,0,0,0-.269-.482c-.068-.106-.135-.212-.212-.327s-.164-.231-.25-.337a6.278,6.278,0,0,0-.529-.6c-.116-.115-.231-.222-.357-.337-.01,0-.01-.01-.019-.01a4.139,4.139,0,0,0-.327-.27c-.019-.019-.048-.038-.068-.057-.019,0-.029-.01-.048-.029-.068-.057-.145-.106-.212-.154s-.154-.106-.231-.153l-.462-.27a7.5,7.5,0,0,0-.992-.414,6.811,6.811,0,0,0-1.069-.289l-7.511,1-2.2.308-1.126.154-2.793.375v.01l-8.33,1.127h-.01a2.118,2.118,0,0,0-.2.211,2.392,2.392,0,0,0-.183.241,1.342,1.342,0,0,0-.134.26c-.039.1-.077.193-.107.28v.019c-.029.116-.057.25-.077.385a2.082,2.082,0,0,0,.039.77,2.162,2.162,0,0,0,.077.241.477.477,0,0,0,.058.126.332.332,0,0,0,.057.115l.058.115a.7.7,0,0,0,.077.106,1.554,1.554,0,0,0,.3.347,1.9,1.9,0,0,0,.317.26l1.609,1,7.858,4.9Z" data-name="Path 170" transform="translate(-4.526 -369.753)"/><path id="Path_171" fill="#803413" d="M29.034,614.88h-.01v-.01c-.106.02-.211.048-.327.068v.01c-.184.039-.376.077-.568.106-.318.057-.645.115-.982.183-.453.087-.934.173-1.435.279-.183.039-.375.077-.567.116-.241.048-.482.1-.732.144a1.555,1.555,0,0,0-.2.048c-.25.048-.51.106-.77.164-.183.038-.366.087-.549.125-.25.068-.491.126-.742.184-.347.087-.693.183-1.03.269a2.81,2.81,0,0,1-.27.077c-.818.222-1.666.491-2.493.8-.242.087-.482.183-.713.269-.173.077-.347.145-.51.221-.385.164-.761.347-1.127.53-.183.1-.356.183-.529.289a10.968,10.968,0,0,0-1.416.944,1.327,1.327,0,0,0-.366.452.509.509,0,0,0-.058.154.327.327,0,0,0-.048.135.741.741,0,0,0-.039.25,1,1,0,0,0,.039.3,1.178,1.178,0,0,0,.241.511,1.361,1.361,0,0,0,.2.211v.01a.806.806,0,0,0,.173.126,1.6,1.6,0,0,0,.222.106,1.384,1.384,0,0,0,.38.07c.032,0,.06.017.091.017l13.8-.375.337-.01Z" data-name="Path 171" transform="translate(1.725 -420.056)"/><path id="Path_172" fill="#fdb693" d="M26.853,614.843c.25-.048.491-.1.732-.144.192-.039.385-.077.567-.116.5-.106.982-.192,1.435-.279.337-.068.664-.126.982-.183.192-.029.385-.068.568-.106v-.01c.115-.019.221-.048.327-.068v.01h.01v-3.62H25.447v.211l.23,2.36.2,2.157c.26-.058.52-.116.77-.164A1.575,1.575,0,0,1,26.853,614.843Z" data-name="Path 172" transform="translate(-0.717 -419.123)"/><path id="Path_173" fill="#fbc312" d="M30.6,602.054h.337l3.168-15.119v-.01c-1.2-1.357-2.388-2.764-3.5-4.2a58.253,58.253,0,0,1-4.1-5.884,31.445,31.445,0,0,1-3.188-6.828l-.482,32.039H30.6Z" data-name="Path 173" transform="translate(-0.179 -410.85)"/><g id="Group_17" data-name="Group 17" transform="translate(0 39.993)"><path id="Path_174" fill="#1e564a" d="M7.323,438.577l.01.01.01.019a3.588,3.588,0,0,0,.385.375c.01-.01.01-.01.01,0a2.45,2.45,0,0,0,.53.3l.01.01h.01a2.616,2.616,0,0,0,.559.145c.01,0,.01,0,.019.01.01-.01.01-.01.019,0a2.5,2.5,0,0,0,.463,0,.533.533,0,0,0,.173-.01v.01a.009.009,0,0,0,.01-.01c.029-.01.077-.029.154-.058.048-.019.115-.048.2-.077.193-.067.433-.173.732-.3a.035.035,0,0,1,.029-.01c.116-.048.231-.1.357-.145.01-.019.019-.019.038-.019.193-.087.4-.183.626-.28a29.605,29.605,0,0,0,4.131-2.225,1.474,1.474,0,0,0,.241-.192,2.982,2.982,0,0,0,.366-.4,7.581,7.581,0,0,0,.934-1.733c.116-.279.231-.578.337-.9a54.726,54.726,0,0,0,1.927-9.639v-.01h-.02a11.043,11.043,0,0,1-1.589.057l-.414-.029H17.56a3.225,3.225,0,0,1-.433-.058c-.145-.019-.289-.038-.433-.068s-.289-.057-.424-.1l-.4-.115s-.01.01-.01,0c-.134-.039-.269-.087-.4-.135h-.01c-.134-.058-.269-.106-.4-.164-.308-.125-.587-.26-.857-.395a.035.035,0,0,1-.029-.01c-.126-.077-.241-.144-.356-.211s-.241-.154-.357-.222a.253.253,0,0,1-.068-.038.684.684,0,0,1-.1-.068,10.3,10.3,0,0,1-1.493-1.272c-.077-.087-.145-.163-.2-.221-.116-.135-.193-.231-.231-.28l-.01-.01v-.01h-.01a.01.01,0,0,1-.01-.01c-.115.135-.75.953-1.589,2.119-.087.125-.173.241-.269.366-.145.212-.289.424-.452.645a1.352,1.352,0,0,1-.1.145c-1.935,2.8-4.266,6.674-3.881,8.561.116.578.27,1.165.443,1.743.068.2.125.4.183.6A43.7,43.7,0,0,0,7.3,438.567l.01-.01S7.323,438.557,7.323,438.577Zm5.027-17.4a1.257,1.257,0,0,1-.164-.145A1.257,1.257,0,0,0,12.35,421.176Z" data-name="Path 174" transform="translate(3.482 -420.078)"/><path id="Path_175" fill="#328c79" d="M12.974,420.1v.01l.01.01c.038.049.115.145.231.28.057.058.125.134.2.221a10.3,10.3,0,0,0,1.493,1.272.684.684,0,0,0,.1.068.257.257,0,0,0,.068.038c.116.068.231.145.357.222s.23.134.356.211a.035.035,0,0,0,.029.01c.269.135.549.27.857.395.135.058.27.106.4.164h.01c.135.048.27.1.4.135,0,.01.01,0,.01,0l.4.115c.135.039.28.068.424.1s.289.049.433.068a3.2,3.2,0,0,0,.433.058h.019l.414.029a11.043,11.043,0,0,0,1.589-.057h.02l-2.427-.982-5.845-2.388-.01.009v.01a.01.01,0,0,0,.01.01Z" data-name="Path 175" transform="translate(1.847 -420.073)"/><path id="Path_176" fill="#64bcaa" d="M7.8,443.883h.01a4.175,4.175,0,0,1,.579.308H8.4c.277.164.544.336.8.514.091.064.189.112.279.179s.153.116.221.173c.2-.471.337-.78.366-.847v-.01a.533.533,0,0,1-.173.01,2.5,2.5,0,0,1-.463,0c-.01-.01-.01-.01-.019,0-.01-.01-.01-.01-.019-.01a2.613,2.613,0,0,1-.559-.145h-.01l-.01-.01a2.447,2.447,0,0,1-.53-.3c0-.009,0-.009-.01,0a3.575,3.575,0,0,1-.385-.375l-.01-.019-.01-.01c0-.02-.01-.02-.01-.02l-.01.01c-.019.049-.048.135-.1.241-.029.068-.058.145-.1.231v.01A.491.491,0,0,1,7.8,443.883Zm.174-.4a.2.2,0,0,1-.077-.087A.2.2,0,0,0,7.978,443.478Z" data-name="Path 176" transform="translate(2.934 -424.845)"/><path id="Path_177" fill="#328c79" d="M.216,458.366c0-.01-5.307-.722-5.354-.732l-.53,1.31,4.247,1.743,3.11,1.261,4.247,1.743.539-1.309c-.038-.029-4.083-2.977-4.16-3.159l-.01-.01-2.08-.847Z" data-name="Path 177" transform="translate(5.669 -427.781)"/><path id="Path_178" fill="#64bcaa" d="M1.747,457.642l2.08.847c.279-.684.636-1.531,1.02-2.456-.578-.616-1.146-1.271-1.675-1.926C2.613,455.5,2.094,456.775,1.747,457.642Z" data-name="Path 178" transform="translate(4.147 -427.058)"/></g></g><g id="Group_19" data-name="Group 19" transform="translate(-96.301 451.28)"><path id="Path_179" fill="#fdfdfd" d="M-33.264,473.266v.01c0,.115-.01.231-.019.347-.01.058-.01.125-.019.183-.01.077-.019.154-.038.241-.02.107-.048.222-.077.337a2.606,2.606,0,0,1-.068.26c-.039.126-.087.25-.135.376-.038.1-.077.183-.115.279-.068.135-.126.27-.2.4-.029.049-.038.087-.067.126a7.063,7.063,0,0,1-1.05,1.367c-.01.009-.019.019-.029.019-.106.107-.211.212-.327.318a1.067,1.067,0,0,0-.106.1c-.1.087-.2.165-.3.251-.068.048-.126.106-.193.153-.087.068-.192.145-.289.212s-.164.126-.26.183-.192.126-.289.192-.2.126-.308.193-.211.125-.327.192-.211.116-.327.173-.26.135-.385.2l-.318.144c-.164.077-.318.154-.491.222l-.26.115c-.2.077-.4.165-.616.242a1.3,1.3,0,0,0-.174.067,30.767,30.767,0,0,1-4.969,1.3l-.3.058q-.809.144-1.676.26c-1.656.222-3.437.385-5.315.482-.385.019-.77.038-1.175.048h-.106a.044.044,0,0,1-.048,0c-.126.01-.25.01-.385.02h31.3c.154-.02.3-.039.452-.068a.164.164,0,0,0,.068-.01,8.766,8.766,0,0,0,5.037-2.813,10.328,10.328,0,0,0,2.706-7.029c0-.029.01-.058.01-.087H-33.331v.1A3.784,3.784,0,0,1-33.264,473.266Z" data-name="Path 179" transform="translate(65.158 -472.331)"/><path id="Path_180" fill="#d2ebe8" d="M-51.141,472.331H-68.032a10.7,10.7,0,0,0,1.714,5.846,9.194,9.194,0,0,0,4.5,3.65,7.223,7.223,0,0,0,1.56.434.186.186,0,0,0,.067.01.372.372,0,0,0,.1.009,2.789,2.789,0,0,0,.385.058H-56.9c.135-.01.26-.01.385-.02a.044.044,0,0,0,.048,0h.106c.4-.01.789-.029,1.175-.048,1.878-.1,3.659-.26,5.315-.482q.867-.116,1.676-.26l.3-.058a30.768,30.768,0,0,0,4.969-1.3,1.3,1.3,0,0,1,.174-.067c.211-.077.414-.164.616-.242l.26-.115c.173-.068.327-.145.491-.222l.318-.144c.126-.068.26-.135.385-.2s.221-.115.327-.173.222-.134.327-.192.2-.126.308-.193.2-.125.289-.192.173-.125.26-.183.2-.145.289-.212c.068-.048.126-.106.193-.153.1-.087.2-.164.3-.251a1.067,1.067,0,0,1,.107-.1c.115-.106.221-.211.327-.318.01,0,.02-.01.029-.019a7.063,7.063,0,0,0,1.05-1.367c.029-.039.038-.077.067-.126.077-.134.135-.269.2-.4.038-.1.077-.183.115-.279.048-.126.1-.25.135-.376a2.606,2.606,0,0,0,.068-.26c.029-.115.057-.231.077-.337.019-.087.029-.164.038-.241.01-.057.01-.125.019-.183.01-.115.019-.231.019-.347v-.01a3.785,3.785,0,0,0-.067-.838v-.1H-51.141Z" data-name="Path 180" transform="translate(68.032 -472.331)"/></g><g id="Group_20" data-name="Group 20" transform="translate(-141.389 388.503)"><path id="Path_181" fill="#fad664" d="M-47.665,460.789a5.811,5.811,0,0,0-1.184-.126,6.576,6.576,0,0,0-1.011.087c-.154.029-.318.068-.482.106-.039.01-.068.01-.1.019-.135.038-.28.087-.424.134-.107.039-.2.077-.308.126a.556.556,0,0,0-.116.049,7.92,7.92,0,0,0-3.5,3.264c-.048.087-.1.173-.154.26-.087.154-.183.318-.269.491-.135.25-.269.52-.4.809-.048.106-.087.222-.134.327-.116.269-.222.539-.327.828-.029.1-.068.183-.1.279a21.051,21.051,0,0,0-.7,2.494h10.314l-.116-1.1-.433-4.1a16.691,16.691,0,0,0-.145-2.224,16.087,16.087,0,0,0-.289-1.7h-.039S-47.6,460.808-47.665,460.789Z" data-name="Path 181" transform="translate(110.827 -407.159)"/><path id="Path_182" fill="#face44" d="M-55.461,451.29c-.153-.26-.337-.51-.51-.761-.125-.184-.25-.376-.385-.549-.086-.115-.183-.231-.279-.347a18.56,18.56,0,0,0-9.861-6.52c-.145-.048-.3-.068-.453-.106-.347-.087-.693-.173-1.049-.231a18.079,18.079,0,0,0-3.236-.289H-75.1v.01h-.01l2.783,5.286,1.358,2.581-6.616-.327-.077-.01.01,6.442-.01.01h-6.356v19.655H-63.54a7.216,7.216,0,0,1-1.56-.434,9.194,9.194,0,0,1-4.5-3.65,10.7,10.7,0,0,1-1.714-5.846h8.879a21.049,21.049,0,0,1,.7-2.494c.029-.1.067-.183.1-.279.106-.289.211-.559.327-.828.048-.106.087-.222.134-.327.126-.289.26-.559.4-.809.087-.173.183-.337.269-.491.058-.087.106-.173.154-.26a7.92,7.92,0,0,1,3.5-3.264.555.555,0,0,1,.116-.048c.106-.049.2-.087.308-.126.144-.048.289-.1.424-.134.029-.01.057-.01.1-.019.164-.039.327-.077.482-.107a6.576,6.576,0,0,1,1.011-.087,5.813,5.813,0,0,1,1.184.126c.068.019.1.029.1.029h.039a18.487,18.487,0,0,0-.9-2.908,18.008,18.008,0,0,0-1.387-2.764A1.27,1.27,0,0,0-55.461,451.29ZM-80.393,473.6a1.215,1.215,0,0,1-1.223-1.2,1.212,1.212,0,0,1,1.223-1.194A1.215,1.215,0,0,1-79.16,472.4,1.217,1.217,0,0,1-80.393,473.6Zm0-6.279a1.213,1.213,0,0,1-1.223-1.194,1.206,1.206,0,0,1,1.223-1.195,1.209,1.209,0,0,1,1.233,1.195A1.215,1.215,0,0,1-80.393,467.324Z" data-name="Path 182" transform="translate(116.4 -403.429)"/><path id="Path_183" fill="#24695a" d="M-58.324,534.4c.4-1.9.684-3.659.886-5.095l-9.486,5.095h-.01l-5.219,2.812c.664,1.05,1.387,2.264,2.07,3.573.048.087.087.164.125.25a34.05,34.05,0,0,1,2.3,5.49,17.654,17.654,0,0,1,.819,4.1,8.957,8.957,0,0,0,1.146-.761c.01-.01.019-.029.029-.029a11.336,11.336,0,0,0,1.02-.915c.058-.058.115-.135.173-.193a15.238,15.238,0,0,0,1.714-2.2,27.422,27.422,0,0,0,2.6-5.5c.029-.077.058-.153.087-.24A51.912,51.912,0,0,0-58.324,534.4Z" data-name="Path 183" transform="translate(113.965 -421.245)"/><path id="Path_184" fill="#bc4b17" d="M-68.377,614l-1.945,3.341v.02l1.666,3.072,9.813.068a1.128,1.128,0,0,0,.394-.087c.02,0,.029-.01.048-.019a1.8,1.8,0,0,0,.2-.116c.029-.019.048-.038.077-.058l.058-.057a1.54,1.54,0,0,0,.2-.241.412.412,0,0,1,.048-.087c.019-.048.058-.1.077-.145s.019-.087.038-.135.029-.087.039-.134a1.515,1.515,0,0,0,.038-.289.83.83,0,0,0,0-.154,1.579,1.579,0,0,0-.029-.3c-.01-.048-.029-.1-.039-.145a1.252,1.252,0,0,0-.115-.3.961.961,0,0,0-.125-.164,1.09,1.09,0,0,0-.154-.211.948.948,0,0,0-.116-.1c-2.417-2.147-6.279-3.284-9.563-4.026-.2-.048-.4-.1-.6-.145l-.01.009Z" data-name="Path 184" transform="translate(113.59 -438.544)"/><path id="Path_185" fill="#803413" d="M-94.366,421.676a1.334,1.334,0,0,0,.2-.01c.048-.01.1-.01.145-.019a7.259,7.259,0,0,0,.857-.134c.279-.058.559-.135.838-.222s.54-.193.79-.289a1.281,1.281,0,0,0,.26-.115l.183-.087a4.72,4.72,0,0,0,.443-.231c.106-.058.588-.356.588-.356a5.667,5.667,0,0,0,.5-.366l.087-.057c.029-.02.067-.039.1-.058.211-.192.414-.376.616-.568a8.649,8.649,0,0,0,1.869-2.706.737.737,0,0,1,.029-.077.035.035,0,0,0,.01-.029c.01-.01.02-.019.01-.038-.048,0-.106.01-.154.01a2.311,2.311,0,0,1-2.34-2.273,2.259,2.259,0,0,1,1.021-1.877l-.116-.029-.1-.048a2.275,2.275,0,0,1-.664-.434c-.058-.057-.115-.125-.173-.192l-.087-.106a1.3,1.3,0,0,1-.154-.28.073.073,0,0,1-.019-.048.469.469,0,0,1-.029-.068v-.01a.75.75,0,0,1-.067-.154c-.01-.058-.058-.25-.077-.308a.832.832,0,0,0-.01-.144v-.116c0-.019-.01-.029-.01-.038v-.6a3.673,3.673,0,0,1,.107-.866c.029-.1.048-.192.077-.289a2.772,2.772,0,0,1,.221-.529,3.766,3.766,0,0,1,.3-.5,3.9,3.9,0,0,1,.482-.568,6.6,6.6,0,0,1,.578-.482,3.546,3.546,0,0,1,.674-.366l.212-.068.172-.068a4.262,4.262,0,0,1,.5-.1,4.042,4.042,0,0,1,.684-.068h1.993c.308,0,.587-.029.847-.048.029,0,.048-.01.077-.01l.385-.058c.134-.02.269-.058.4-.087.183-.039.375-.087.568-.145.106-.029.211-.068.318-.106.173-.068.337-.135.5-.212s.317-.164.481-.25a.334.334,0,0,0,.087-.038.527.527,0,0,1,.077-.039c.222-.134.4-.241.588-.366a1.88,1.88,0,0,0,.26-.2,2.258,2.258,0,0,0,.269-.192l7.078-5.9h.01l1.444-1.2a2.081,2.081,0,0,0,.78-1.782,2.28,2.28,0,0,0-.992-1.714l-8.292.01H-92.815v.01a12.663,12.663,0,0,0-2.292.2c-.029,0-.057.01-.087.01-.317.068-.635.135-.943.222-.038.01-.068.019-.106.029-.3.087-.6.192-.877.3-.029.01-.048.019-.077.029a8.911,8.911,0,0,0-.857.4c-.01,0-.019.01-.029.01a11.182,11.182,0,0,0-4.68,4.786c-.154.289-.308.578-.453.877,0,.019-.01.029-.019.049-.135.289-.269.587-.395.895v.02c-.25.616-.481,1.252-.693,1.945a35.54,35.54,0,0,0-1.281,7.945,2.556,2.556,0,0,0-.01.27c-.01.163-.019.317-.029.471a59.03,59.03,0,0,0,.077,6.105v.029c.01.126.019.25.029.366,0,.077.01.145.01.212a.765.765,0,0,1,.01.153c.144,1.84.317,3.024.327,3.053h7.56l2.716-.029c.087,0,.183-.01.279-.01A2.392,2.392,0,0,1-94.366,421.676Z" data-name="Path 185" transform="translate(120.848 -393.344)"/><path id="Path_186" fill="#fdd9c7" d="M-95.551,433.4l6.183,4.824,3.062,2.388v.009l.125.087,3.158-2.783v.01l5.1-4.468.01.009.068-.068.01-1.031-.048-.057-3.457-4.334-1.9-2.359h3.072a10.392,10.392,0,0,0,1.811-.164c.154-.029.318-.058.472-.1a9.745,9.745,0,0,0,1.685-.51,10.046,10.046,0,0,0,1.8-.943,9.013,9.013,0,0,0,1.146-.877,5.529,5.529,0,0,0,.51-.471,9.11,9.11,0,0,0,.924-1.069,7.179,7.179,0,0,0,.77-1.175,4.241,4.241,0,0,0,.222-.424l.106-.2a9.194,9.194,0,0,0,.645-1.859c.048-.192.1-.385.126-.578a9.081,9.081,0,0,0,.154-1.733v-11.18l-.01-3.053v-2.031l-7.078,5.9a2.265,2.265,0,0,1-.269.192,1.885,1.885,0,0,1-.26.2c-.184.125-.366.231-.588.366a.533.533,0,0,0-.077.039c-.153.087-.308.173-.471.25a.418.418,0,0,1-.1.038c-.164.077-.327.145-.5.212l-.01.01c-.106.038-.212.068-.308.1-.193.058-.385.106-.568.145-.135.029-.27.067-.4.087l-.385.058c-.029,0-.048.01-.077.01a7.526,7.526,0,0,1-.847.048h-1.993a4.041,4.041,0,0,0-.684.068,4.262,4.262,0,0,0-.5.1l-.172.068-.212.068a3.554,3.554,0,0,0-.674.366,6.6,6.6,0,0,0-.578.482,3.894,3.894,0,0,0-.482.568,3.77,3.77,0,0,0-.3.5,2.774,2.774,0,0,0-.221.529c-.029.1-.048.193-.077.289a4.248,4.248,0,0,0-.1.866v.752a.831.831,0,0,1,.01.144c.019.058.067.25.077.308a.751.751,0,0,0,.067.154v.01a.47.47,0,0,0,.029.068.073.073,0,0,0,.019.048,1.305,1.305,0,0,0,.154.28l.087.106c.058.068.115.135.173.192a2.277,2.277,0,0,0,.664.434l.1.048.116.029a2.358,2.358,0,0,1,1.319-.4,2.308,2.308,0,0,1,2.331,2.272,2.292,2.292,0,0,1-2.167,2.254l-.01.01c.01.019,0,.029-.01.038a.035.035,0,0,1-.01.029.738.738,0,0,0-.029.077,8.649,8.649,0,0,1-1.869,2.706c-.2.192-.4.376-.616.568-.029.019-.068.038-.1.058l-.087.057a5.693,5.693,0,0,1-.5.366s-.482.3-.588.356a4.731,4.731,0,0,1-.443.231l-.183.087a1.281,1.281,0,0,1-.26.115c-.25.1-.521.212-.79.289s-.559.164-.838.222a7.246,7.246,0,0,1-.857.134c-.048.01-.1.01-.145.019a1.327,1.327,0,0,1-.2.01,2.377,2.377,0,0,0-.269.019.469.469,0,0,1-.115.01h-.164l-2.7.038h-.029V433.4h.01Z" data-name="Path 186" transform="translate(118.769 -394.557)"/><path id="Path_187" fill="#1e564a" d="M-77.842,540.132c-.038-.087-.076-.164-.125-.25-.684-1.309-1.406-2.523-2.07-3.573l-.6.318-5.432,2.908-.01-.01L-96.187,533.5l-12.827-7.656-1.56-.924A62.38,62.38,0,0,0-107.6,533.5a53.414,53.414,0,0,0,3.246,6.395c.048.076.1.163.154.24a51.01,51.01,0,0,0,3.813,5.5c.972,1.175,1.9,2.206,2.841,3.178h.01c.241.25.51.491.761.742.318.308.626.617.954.915a.678.678,0,0,1,.087.077,41.752,41.752,0,0,0,5.547,4.247c.019.164,1.56,15.8,4.68,30.73l-.01.019c.356,1.637.7,3.236,1.1,4.854h1.338v-.01h6.7v.01h1.647l.01-.01c0-.327.549-32.944,0-40.658a17.655,17.655,0,0,0-.819-4.1A34.048,34.048,0,0,0-77.842,540.132Z" data-name="Path 187" transform="translate(121.85 -420.345)"/><path id="Path_188" fill="#fdd9c7" d="M-75.981,607.285v.01l.077,3.582v.068c0,.029,0,.029.01.029v.009c.029.116.126.212.318.318.8.433,3.034.4,5.682.934.115.029.241.049.366.077l.01-.01.077-1.425.154-3.438.01-.144v-.01Z" data-name="Path 188" transform="translate(114.751 -437.249)"/><path id="Path_189" fill="#fad664" d="M-80.653,446.763v-.01l-3.159,2.783-.125-.087-.077.1v6.9h6.356l.01-.01-.01-6.442.077.01,6.616.327-1.358-2.581-2.783-5.287h.01v-.01H-75.4l-.135-.144-.01-.01Z" data-name="Path 189" transform="translate(116.4 -403.389)"/><path id="Path_190" fill="#803413" d="M-69.519,613.652l.01-.395c-.125-.029-.25-.048-.366-.077-2.648-.529-4.882-.5-5.682-.934-.192-.106-.288-.2-.318-.318v-.009c-.01,0-.01,0-.01-.029l.048,8.05v.116l4,.019.01-.01.366-3.053v-.02Z" data-name="Path 190" transform="translate(114.731 -438.194)"/><path id="Path_191" fill="#fdb693" d="M-78.819,432.367h-1.233l1.9,2.359,3.457,4.334v-6.943a4.267,4.267,0,0,1-.472.087,10.391,10.391,0,0,1-1.811.164Z" data-name="Path 191" transform="translate(115.587 -401.301)"/><path id="Path_192" fill="#bc4b17" d="M-88.4,621.213l-2.272,2.484-.01.019.8,3.4,9.476,2.475a1.449,1.449,0,0,0,.289.039c.029,0,.067-.019.106-.019.019,0,.038-.01.068-.01a1.153,1.153,0,0,0,.308-.1.2.2,0,0,0,.048-.029,1.149,1.149,0,0,0,.308-.222.009.009,0,0,0,.01-.01,1.554,1.554,0,0,0,.288-.366,1.446,1.446,0,0,0,.135-.337c.01-.01.01-.01.01-.02a1.63,1.63,0,0,0,.068-.424l.01-.009a1.54,1.54,0,0,0-.231-.847,10.864,10.864,0,0,0-1.435-1.734c-.1-.1-.183-.2-.289-.308-.192-.183-.394-.346-.6-.52-.164-.145-.308-.279-.482-.414-.211-.173-.424-.327-.645-.491-.173-.125-.327-.25-.5-.376-.269-.183-.548-.356-.818-.539-.126-.077-.25-.164-.376-.25-.356-.212-.7-.424-1.05-.626-.057-.029-.115-.068-.173-.1-.385-.222-.77-.433-1.146-.636a.97.97,0,0,1-.1-.048c-.269-.145-.539-.279-.8-.414-.135-.068-.28-.145-.4-.212h-.01Z" data-name="Path 192" transform="translate(117.767 -439.976)"/><path id="Path_193" fill="#24695a" d="M-86.83,560.959a41.751,41.751,0,0,1-5.547-4.247.684.684,0,0,0-.087-.077c-.327-.3-.636-.606-.954-.915-.25-.25-.52-.491-.761-.741h-.01l-.029,45.175h.828v-.01h7.261v.01h.885v-.01l3.082-8.436.01-.019C-85.27,576.761-86.811,561.122-86.83,560.959Z" data-name="Path 193" transform="translate(118.493 -426.514)"/><path id="Path_194" fill="#1e564a" d="M-79.774,470.732A1.206,1.206,0,0,0-81,471.927a1.213,1.213,0,0,0,1.223,1.194,1.215,1.215,0,0,0,1.233-1.194A1.209,1.209,0,0,0-79.774,470.732Z" data-name="Path 194" transform="translate(115.781 -409.225)"/><path id="Path_195" fill="#1e564a" d="M-79.774,478.62A1.212,1.212,0,0,0-81,479.814a1.215,1.215,0,0,0,1.223,1.2,1.217,1.217,0,0,0,1.233-1.2A1.215,1.215,0,0,0-79.774,478.62Z" data-name="Path 195" transform="translate(115.781 -410.844)"/><path id="Path_196" fill="#eda81f" d="M-85.117,418.807a2.311,2.311,0,0,0,2.34,2.273c.048,0,.106-.01.154-.01l.01-.01a2.292,2.292,0,0,0,2.167-2.254,2.308,2.308,0,0,0-2.331-2.272,2.357,2.357,0,0,0-1.319.4A2.259,2.259,0,0,0-85.117,418.807Z" data-name="Path 196" transform="translate(116.626 -398.103)"/><path id="Path_197" fill="#eda81f" d="M-98.164,444.916l-2.947,5.4,2.485-.125,4.478-.231v.308l.01,6.144h.27l6.346-.01v-6.876l.077-.1v-.01l-3.062-2.388-6.182-4.825v.019l-.01-.01-.106.212h.01Z" data-name="Path 197" transform="translate(119.908 -403.372)"/><path id="Path_198" fill="#fbc312" d="M-91.859,456.481v-.02l-6.346.01h-.269l-.01-6.144v-.308l-4.478.231-2.485.126,2.947-5.4,1.368-2.484h-2.986a17.894,17.894,0,0,0-3.226.289c-.4.068-.789.164-1.175.26-.115.029-.221.038-.327.068a18.661,18.661,0,0,0-10.968,8.06c-.01.02-.029.039-.039.058-.241.376-.452.761-.664,1.156-.039.077-.077.145-.115.212-.2.394-.4.809-.568,1.223-.029.067-.068.134-.1.2a18,18,0,0,0-.944,3.043,4.629,4.629,0,0,1,1.184-.135,5.8,5.8,0,0,1,2,.356.134.134,0,0,1,.058.02c.115.038.221.087.337.134.029.009.067.029.1.039.115.048.221.106.337.164.087.048.183.106.269.164a1.779,1.779,0,0,1,.192.106c.087.058.174.115.261.183a1.375,1.375,0,0,1,.134.1c.1.068.193.145.289.222.029.029.068.058.1.087.106.087.211.183.308.279a.122.122,0,0,1,.048.048,9.186,9.186,0,0,1,1.059,1.233.009.009,0,0,1,.01.01c.1.135.192.289.3.443.029.039.057.087.087.135.087.145.173.289.26.443l.115.2c.077.154.164.308.241.472.039.076.077.163.116.241.115.24.221.49.327.761.077.164.145.327.212.51.039.115.087.25.126.375.067.184.134.366.192.568.038.116.077.25.115.376.068.222.135.452.193.683.029.116.057.222.087.337.077.3.145.6.211.905.02.077.029.135.048.212a47.324,47.324,0,0,1,.847,9.409h20.223V456.481Z" data-name="Path 198" transform="translate(124.245 -403.429)"/><path id="Path_199" fill="#fdd9c7" d="M-93.03,611.8H-93.4v.106l-.828,3.486-.029.107v.009c0,.01.01.019.01.029a.443.443,0,0,0,.048.126c.01.019.019.029.029.048a13.252,13.252,0,0,0,3.429,1.974c.684.327,1.425.684,2.2,1.079v.01h.01l1.877-5.46.521-1.5v-.01Z" data-name="Path 199" transform="translate(118.501 -438.176)"/><path id="Path_200" fill="#803413" d="M-89.692,620.37l.588-.636v-.01c-.771-.4-1.512-.751-2.2-1.079a13.256,13.256,0,0,1-3.429-1.974c-.01-.019-.019-.029-.029-.048a.442.442,0,0,1-.048-.126c0-.01-.01-.019-.01-.029l-2.128,8.089-.048.173v.01l3.862,1h.01l1.146-2.87.01-.019Z" data-name="Path 200" transform="translate(119.063 -439.134)"/><path id="Path_201" fill="#eda81f" d="M-113.5,470.242c-.067-.308-.134-.606-.211-.905-.029-.115-.058-.221-.087-.337-.058-.231-.126-.462-.193-.683-.038-.126-.077-.26-.115-.376-.058-.2-.126-.385-.192-.568-.039-.125-.087-.26-.126-.375-.068-.183-.135-.346-.212-.51-.106-.27-.211-.521-.327-.761-.039-.078-.077-.164-.116-.241-.077-.164-.164-.318-.241-.472l-.115-.2c-.087-.154-.173-.3-.26-.443-.029-.048-.058-.1-.087-.135-.106-.153-.2-.308-.3-.443a.009.009,0,0,0-.01-.01,9.19,9.19,0,0,0-1.059-1.233.121.121,0,0,0-.048-.049c-.1-.1-.2-.192-.308-.279-.029-.029-.068-.058-.1-.087-.1-.077-.193-.154-.289-.222a1.375,1.375,0,0,0-.134-.1c-.087-.068-.174-.125-.261-.183a1.776,1.776,0,0,0-.192-.106c-.087-.058-.183-.116-.269-.164-.116-.058-.222-.116-.337-.164-.029-.01-.068-.029-.1-.039-.116-.048-.222-.1-.337-.134a.134.134,0,0,0-.058-.02,5.8,5.8,0,0,0-2-.356,4.63,4.63,0,0,0-1.184.135h-.01c-.019.068-.019.144-.038.211-.106.52-.193,1.04-.26,1.57-.01.145-.029.28-.039.424-.048.5-.077,1.012-.087,1.522,0,.077-.01.145-.01.221l-.414,3.948-1.079,10.478-.068.7H-112.6a47.325,47.325,0,0,0-.847-9.409C-113.466,470.378-113.475,470.32-113.5,470.242Z" data-name="Path 201" transform="translate(124.762 -407.157)"/></g><g id="Group_21" data-name="Group 21" transform="translate(-160.572 370.327)"><path id="Path_202" fill="#d13f2b" d="M-43.726,520.978l-1.483.8-7.261,3.89-1.4.751v.01c-.2,1.435-.482,3.2-.886,5.095h15.466a6.161,6.161,0,0,0,6.144-6.144V515.3l-1.647.885Z" data-name="Path 202" transform="translate(129.578 -400.195)"/><path id="Path_203" fill="#d13f2b" d="M-128.664,460.654l1.079-10.478.414-3.949c0-.076.01-.144.01-.221.01-.51.038-1.021.087-1.522.01-.144.029-.279.039-.424.067-.529.153-1.05.26-1.57.019-.068.019-.144.038-.211h.01a18.007,18.007,0,0,1,.944-3.043c.029-.068.068-.135.1-.2.173-.414.366-.829.568-1.223.038-.068.076-.135.115-.212.212-.395.424-.78.664-1.156.01-.019.029-.038.039-.058a18.661,18.661,0,0,1,10.968-8.06c.107-.029.212-.039.327-.068.385-.1.771-.192,1.175-.26a17.889,17.889,0,0,1,3.226-.289h2.976l.106-.211V417.049h.029l2.7-.038-2.716.029h-7.56c-.01-.029-.183-1.213-.327-3.053a.764.764,0,0,0-.01-.153c0-.068-.01-.135-.01-.212-.01-.116-.019-.241-.029-.366v-.029a59.021,59.021,0,0,1-.077-6.105c.01-.154.019-.308.029-.471a2.555,2.555,0,0,1,.01-.27,35.539,35.539,0,0,1,1.281-7.945c.212-.693.443-1.329.693-1.945v-.02c.126-.308.26-.606.4-.895.01-.02.019-.029.019-.048.145-.3.3-.587.453-.877a11.182,11.182,0,0,1,4.68-4.786c.01,0,.019-.01.029-.01a8.93,8.93,0,0,1,.857-.4c.029-.01.048-.019.077-.029.28-.106.578-.211.877-.3.038-.01.068-.02.106-.029.308-.087.626-.154.943-.222.029,0,.058-.01.087-.01a12.663,12.663,0,0,1,2.292-.2v-.01h13.886l8.292-.01a2.28,2.28,0,0,1,.992,1.714,2.081,2.081,0,0,1-.78,1.782l-1.444,1.2h-.01v2.031l.01,3.053v11.18a9.08,9.08,0,0,1-.154,1.733c-.029.193-.077.385-.126.578a9.193,9.193,0,0,1-.645,1.859l-.106.2a4.247,4.247,0,0,1-.222.424,7.178,7.178,0,0,1-.77,1.175,9.115,9.115,0,0,1-.924,1.069,5.522,5.522,0,0,1-.51.471,9.017,9.017,0,0,1-1.146.877,10.052,10.052,0,0,1-1.8.943,9.744,9.744,0,0,1-1.685.51c-.154.039-.318.068-.472.1a4.268,4.268,0,0,0,.472-.087v6.943l.048.057-.01,1.031-.068.068.135.144h4.17a18.073,18.073,0,0,1,3.236.289c.356.058.7.145,1.049.231.154.038.308.057.453.106a18.56,18.56,0,0,1,9.861,6.52c.1.115.193.231.279.346.135.173.261.366.385.549.173.25.357.5.51.761a1.261,1.261,0,0,1,.077.125A18.009,18.009,0,0,1-66.33,439.4c2.774-15.322,12.48-33.628,10.873-54.7-1.31-17.054-43.123-14.06-44.241-13.973-1.107-.087-42.93-3.081-44.23,13.973-1.954,25.578,12.759,47.072,11.517,64.117A122.775,122.775,0,0,1-134,461.357h5.268Z" data-name="Path 203" transform="translate(147.915 -370.475)"/><path id="Path_204" fill="#eda81f" d="M-56.968,542.108c-.029.087-.057.163-.087.24h17.662v-6.635H-55.225A51.919,51.919,0,0,1-56.968,542.108Z" data-name="Path 204" transform="translate(130.05 -404.385)"/><path id="Path_205" fill="#fbc312" d="M-54.8,603.808a.965.965,0,0,1,.125.164,1.254,1.254,0,0,1,.115.3c.01.049.029.1.039.145a1.578,1.578,0,0,1,.029.3.831.831,0,0,1,0,.154,1.512,1.512,0,0,1-.038.289c-.01.048-.029.1-.039.134s-.019.1-.038.135-.058.1-.077.145a.408.408,0,0,0-.048.087,1.546,1.546,0,0,1-.2.241l-.058.057c-.029.02-.048.039-.077.058v1.675h3.024l.886-7.8,5.777-50.509.607-5.307H-55.068V603.5a.953.953,0,0,1,.116.1A1.092,1.092,0,0,1-54.8,603.808Z" data-name="Path 205" transform="translate(129.642 -406.101)"/><path id="Path_206" fill="#eda81f" d="M-113.971,535.713h-27.657v6.635h31.057c-.058-.077-.106-.164-.154-.24A53.412,53.412,0,0,1-113.971,535.713Z" data-name="Path 206" transform="translate(147.406 -404.385)"/><path id="Path_207" fill="#d13f2b" d="M-118.439,521.07l-1.945-1.165-10.5-6.26-9.418-5.624-3.111-1.849a6.178,6.178,0,0,0-5.489,6.115v11.219a6.16,6.16,0,0,0,6.144,6.144h27.291A62.384,62.384,0,0,1-118.439,521.07Z" data-name="Path 207" transform="translate(148.898 -398.323)"/><path id="Path_208" fill="#fbc312" d="M-125.453,599.889l.886,7.8h3.014V544.073h-10.285Z" data-name="Path 208" transform="translate(145.397 -406.101)"/></g><g id="Group_23" data-name="Group 23" transform="translate(-195.616 393.375)"><path id="Path_209" fill="#fad664" d="M-169.048,433.4v1.647l5.884-.01v-1.647h-.183Z" data-name="Path 209" transform="translate(188.077 -406.435)"/><path id="Path_210" fill="#face44" d="M-169.048,428.106v1.637l5.884-.01v-1.628h-5.884Z" data-name="Path 210" transform="translate(188.077 -405.35)"/><path id="Path_211" fill="#eda81f" d="M-169.048,422.8v1.637h.058l5.826-.01V422.8h-5.884Z" data-name="Path 211" transform="translate(188.077 -404.261)"/><path id="Path_212" fill="#fbc312" d="M-163.179,418.486l-.01-3.987h-.116l-5.768.01V418.5h.058Z" data-name="Path 212" transform="translate(188.082 -402.558)"/><g id="Group_22" data-name="Group 22"><path id="Path_213" fill="#fdfdfd" d="M-180.4,447.884h2.918a.93.93,0,0,1,.886,1.2l-.655,2.128H-164.9l-.01-44.4v-.443h-5.209l-22.862.01h-.01l.01,43.951v.886h12.336l-.645-2.138A.925.925,0,0,1-180.4,447.884Zm12.326-18.4v.01l-5.884.01v-1.647l5.7-.01h.183Zm0-4.218v.01l-5.884.01v-1.637h5.884Zm0-4.228v.02l-5.826.01h-.058v-1.637h5.884Zm-5.9-8.195,5.769-.009h.115l.01,3.987-5.836.01h-.057Zm-14.773,12.105v-.01h-.01V412.831h11.8v5.335l.01,6.77-.01.01Z" data-name="Path 213" transform="translate(192.99 -400.89)"/><path id="Path_214" fill="#d2ebe8" d="M-170.126,400.64v-1.165l-11.652,2.8-11.2,2.687,22.862-.01Z" data-name="Path 214" transform="translate(192.988 -399.475)"/><path id="Path_215" fill="#bc4b17" d="M-176.624,484.01l6.259-.01c-.067-1.454-2.128-2.725-5.046-3.082a.029.029,0,0,1-.019-.01,11.762,11.762,0,0,0-1.617-.1,10.693,10.693,0,0,0-1.637.106h-.01a7.113,7.113,0,0,0-4.555,1.974,1.287,1.287,0,0,0-.107.116,2.269,2.269,0,0,0-.183.337c-.029.067-.068.125-.1.192a1.8,1.8,0,0,0-.068.4.186.186,0,0,1-.019.077h7.1Z" data-name="Path 215" transform="translate(191.088 -416.167)"/><path id="Path_216" fill="#38ab93" d="M-175.862,426.6l-.01-6.77V414.5l-4.873,5.008-6.9,7.1h-.01v.01h11.787Z" data-name="Path 216" transform="translate(191.896 -402.558)"/><path id="Path_217" fill="#328c79" d="M-180.747,419.507l4.873-5.008h-11.8v12.1h.019Z" data-name="Path 217" transform="translate(191.898 -402.558)"/><path id="Path_218" fill="#803413" d="M-175.939,476.255a11.772,11.772,0,0,1,1.617.1V462.109h.029v-.019l.048-.154.655-2.128a.93.93,0,0,0-.886-1.2h-2.918a.925.925,0,0,0-.886,1.195l.645,2.138.048.173v14.252h.01A10.709,10.709,0,0,1-175.939,476.255Z" data-name="Path 218" transform="translate(189.98 -411.609)"/></g></g><g id="Group_25" data-name="Group 25" transform="translate(-205.785 461.209)"><path id="Path_219" fill="#76bcae" d="M-1.678,489.388l8.493-4.555H6.8l.019-.01h-34.3a.164.164,0,0,1-.068.01c-.153.029-.3.048-.452.068H-49.26l-.347.529-1.907,2.9-5.691,8.658-3.13,4.777h-.01l-8.147,12.413-.491.741-6.654,10.13-.154.222-3.958,6.028.01.01,5.432-2.908.6-.318,5.219-2.812h.01L-59,520.175v-.01l1.4-.751,7.261-3.891,1.483-.8,8.937-4.8,1.647-.885,22.467-12.057,4.882-2.629Z" data-name="Path 219" transform="translate(179.92 -484.824)"/><path id="Path_220" fill="#5db09f" d="M-136.8,509.264l10.5,6.26,1.945,1.165,1.56.924,12.827,7.656,10.112,6.028,3.958-6.028.154-.222,6.654-10.13.491-.741,8.147-12.413h.01l3.13-4.777,5.691-8.658,1.907-2.9.347-.529H-82.23a2.79,2.79,0,0,1-.385-.058.37.37,0,0,1-.1-.01.186.186,0,0,1-.067-.01h-86.363l-6.259.01h-2.36l.145.087,20.223,12.066,8.06,4.805,3.111,1.849Z" data-name="Path 220" transform="translate(200.034 -484.824)"/><g id="Group_24" data-name="Group 24" transform="translate(0 0.009)"><path id="Path_221" fill="#bc4b17" d="M48.382,619.664c-.077-.048-.154-.1-.222-.145a.982.982,0,0,1-.183-.173c-.058-.068-.106-.135-.154-.2a.945.945,0,0,1-.126-.308.867.867,0,0,1-.038-.472.959.959,0,0,1,.019-.164,1.178,1.178,0,0,1,.106-.289c.116-.231.25-.463.4-.694s.3-.462.472-.693.337-.453.529-.683.376-.443.578-.675c.192-.2.385-.414.587-.625.559-.568,1.165-1.127,1.8-1.666V606.49A141.9,141.9,0,0,1,36.113,591.3l-3.168,15.119v10.39l-.337.01v3H48.757a.527.527,0,0,1-.126-.068l-.01-.01A1.012,1.012,0,0,1,48.382,619.664Z" data-name="Path 221" transform="translate(156.863 -506.685)"/><path id="Path_222" fill="#bc4b17" d="M55.64,571.108V558.916l-6.009,4.421A39.679,39.679,0,0,1,55.64,571.108Z" data-name="Path 222" transform="translate(153.369 -500.038)"/><path id="Path_223" fill="#803413" d="M45.6,496.979v-.01h-.01v-.578l.01-11.556H23.326l-8.494,4.555L5.587,494.36.7,496.989H45.59Z" data-name="Path 223" transform="translate(163.41 -484.836)"/><path id="Path_224" fill="#bc4b17" d="M32.608,531.7q1.04-1.589,2.253-3.294a141.519,141.519,0,0,1,17.286-19.356v-8.937l-.01.01H32.608V531.7Z" data-name="Path 224" transform="translate(156.863 -487.971)"/><path id="Path_225" fill="#803413" d="M-183.511,484.836h-22.274l.029,11.566v.587h42.613l-20.223-12.066Z" data-name="Path 225" transform="translate(205.785 -484.836)"/><path id="Path_226" fill="#bc4b17" d="M-205.757,499.965v-.578h-.029V600.965h19.539l.01-.01-.01-99.584v-1.4h-19.51Z" data-name="Path 226" transform="translate(205.785 -487.822)"/></g></g></g></g></svg>